<svg id="ic_quick_quick" xmlns="http://www.w3.org/2000/svg" width="36" height="36" viewBox="0 0 36 36">
  <rect id="area" width="36" height="36" fill="none"/>
  <g id="icon" transform="translate(-477 -109)">
    <path id="_00" data-name="00" d="M426.942,499.976c0-.256-.31-.373-.635-.21-.883.283-9.249,8.86-9.249,8.86a.452.452,0,0,0,.056.425.479.479,0,0,0,.389.2h3.325l-3.026,5.83a.458.458,0,0,0,.216.553.486.486,0,0,0,.234.06.478.478,0,0,0,.363-.165l9.3-9.673a.453.453,0,0,0,.067-.493.476.476,0,0,0-.431-.267h-3.109l2.408-4.845A.451.451,0,0,0,426.942,499.976Z" transform="translate(68.972 -382.691)" fill="#fff"/>
    <path id="_00-2" data-name="00" d="M426.942,499.976c0-.256-.31-.373-.635-.21-.883.283-9.249,8.86-9.249,8.86a.452.452,0,0,0,.056.425.479.479,0,0,0,.389.2h3.325l-3.026,5.83a.458.458,0,0,0,.216.553.486.486,0,0,0,.234.06.478.478,0,0,0,.363-.165l9.3-9.673a.453.453,0,0,0,.067-.493.476.476,0,0,0-.431-.267h-3.109l2.408-4.845A.451.451,0,0,0,426.942,499.976Z" transform="translate(75.972 -377.691)" fill="#fff"/>
  </g>
</svg>
