<svg id="img_ic_delivery" xmlns="http://www.w3.org/2000/svg" width="59" height="34" viewBox="0 0 59 34">
  <path id="패스_543" data-name="패스 543" d="M219.4,284.177h-3.732v-10.9l7.83-10.043h12.8v19.694h-2.5V265.732h-9.081l-6.551,8.4v7.542H219.4Z" transform="translate(-215.665 -255.512)"/>
  <path id="패스_544" data-name="패스 544" d="M266.783,284.177h-5.277v-2.5h2.777V276.09h2.5Z" transform="translate(-215.871 -255.545)"/>
  <path id="패스_545" data-name="패스 545" d="M254.719,284.177H233.8v-28.76h31.566v2.5H236.3v23.76h18.422Z" transform="translate(-215.8 -255.417)"/>
  <path id="패스_546" data-name="패스 546" d="M226.428,289.578a5.158,5.158,0,1,1,5.158-5.158A5.164,5.164,0,0,1,226.428,289.578Zm0-7.816a2.658,2.658,0,1,0,2.658,2.658A2.661,2.661,0,0,0,226.428,281.762Z" transform="translate(-215.665 -255.578)"/>
  <path id="패스_547" data-name="패스 547" d="M257.6,289.578a5.158,5.158,0,1,1,5.158-5.158A5.164,5.164,0,0,1,257.6,289.578Zm0-7.816a2.658,2.658,0,1,0,2.658,2.658A2.661,2.661,0,0,0,257.6,281.762Z" transform="translate(-215.82 -255.578)"/>
  <path id="패스_548" data-name="패스 548" d="M229.159,274.955h-6.64v-2.5h4.14v-3.8h2.5Z" transform="translate(-215.665 -255.493)"/>
  <rect id="사각형_506" data-name="사각형 506" width="13.938" height="2.5" transform="translate(45.062 6.849)"/>
  <rect id="사각형_507" data-name="사각형 507" width="10.088" height="2.5" transform="translate(45.229 13.559)"/>
</svg>
