<svg xmlns="http://www.w3.org/2000/svg" width="100" height="100" viewBox="0 0 100 100">
  <g id="img_ic_cs" transform="translate(-305 -38)">
    <rect id="area" width="100" height="100" transform="translate(305 38)" fill="rgba(255,255,255,0)"/>
    <path id="고객센터이미지" d="M664.607,900.857h-1.183c-2.314-18.092-16.293-30.248-33.3-30.248-18.613,0-33.668,15.511-33.668,34.8v28.343H593.51a7.7,7.7,0,0,1-4.352-1.567,9.221,9.221,0,0,1-3.808-7.931v-8.026c0-4,2.167-7.475,5.8-8.682l-.1-.086a2.7,2.7,0,0,1,.279-.1l-1.562-6.377a14.876,14.876,0,0,0-4.386,1.965l.237.2A15.72,15.72,0,0,0,579,916.227v8.026c0,5.444,2.325,10.6,6.779,13.5a13.865,13.865,0,0,0,7.73,2.575h9.3V905.408c0-15.659,11.871-28.4,26.984-28.4s26.984,12.74,26.984,28.4v32.738l-.025-.086a14.836,14.836,0,0,1-1.332,4.023,14.423,14.423,0,0,1-9.935,7.388,9.71,9.71,0,0,0-8.9-6.084,10.117,10.117,0,1,0,9.46,12.692,20.709,20.709,0,0,0,15.073-10.59,24.623,24.623,0,0,0,2.044-5.159h1.446a13.677,13.677,0,0,0,7.671-2.575c4.456-2.9,6.722-8.058,6.722-13.5v-8.026C679,907.554,672.976,900.857,664.607,900.857ZM636.624,957.03a3.534,3.534,0,1,1,3.409-3.531A3.475,3.475,0,0,1,636.624,957.03Zm36.027-32.777c0,3.166-1.156,6.241-3.751,7.931a7.528,7.528,0,0,1-4.293,1.567h-1.479V907.436h1.479c4.87,0,8.044,3.745,8.044,8.791Z" transform="translate(-274 -828.609)" fill="#346dd0"/>
  </g>
</svg>
