<svg id="ic_mo_quick_quick" xmlns="http://www.w3.org/2000/svg" width="24" height="24" viewBox="0 0 24 24">
  <rect id="area" width="24" height="24" fill="none"/>
  <g id="icon" transform="translate(-482 -114)">
    <path id="_00" data-name="00" d="M425.139,499.941c0-.224-.253-.327-.52-.183-.722.247-7.567,7.752-7.567,7.752a.419.419,0,0,0,.046.372.384.384,0,0,0,.318.173h2.72l-2.476,5.1a.413.413,0,0,0,.176.484.377.377,0,0,0,.488-.092l7.612-8.464a.418.418,0,0,0,.055-.432.388.388,0,0,0-.352-.234H423.1l1.97-4.24A.413.413,0,0,0,425.139,499.941Z" transform="translate(68.972 -382.691)" fill="#fff"/>
    <path id="_00-2" data-name="00" d="M425.139,499.941c0-.224-.253-.327-.52-.183-.722.247-7.567,7.752-7.567,7.752a.419.419,0,0,0,.046.372.384.384,0,0,0,.318.173h2.72l-2.476,5.1a.413.413,0,0,0,.176.484.377.377,0,0,0,.488-.092l7.612-8.464a.418.418,0,0,0,.055-.432.388.388,0,0,0-.352-.234H423.1l1.97-4.24A.413.413,0,0,0,425.139,499.941Z" transform="translate(75.972 -378.691)" fill="#fff"/>
  </g>
</svg>
