<svg xmlns="http://www.w3.org/2000/svg" width="51" height="29" viewBox="0 0 51 29">
  <g id="img_ic_faq" transform="translate(0 0)">
    <path id="패스_543" data-name="패스 543" d="M218.874,281.246h-3.209V271.87l6.735-8.638H233.41v16.939h-2.15V265.383H223.45l-5.634,7.227V279.1h1.059Z" transform="translate(-215.665 -256.736)"/>
    <path id="패스_544" data-name="패스 544" d="M266.045,283.045h-4.539V280.9h2.389V276.09h2.15Z" transform="translate(-222.001 -258.612)"/>
    <path id="패스_545" data-name="패스 545" d="M251.792,280.153H233.8V255.417h27.15v2.15h-25V278h15.845Z" transform="translate(-218.151 -255.417)"/>
    <path id="패스_546" data-name="패스 546" d="M225.706,288.135a4.436,4.436,0,1,1,4.436-4.436A4.442,4.442,0,0,1,225.706,288.135Zm0-6.722a2.286,2.286,0,1,0,2.286,2.286A2.289,2.289,0,0,0,225.706,281.412Z" transform="translate(-216.449 -259.135)"/>
    <path id="패스_547" data-name="패스 547" d="M256.876,288.135a4.436,4.436,0,1,1,4.436-4.436A4.442,4.442,0,0,1,256.876,288.135Zm0-6.722a2.286,2.286,0,1,0,2.286,2.286A2.289,2.289,0,0,0,256.876,281.412Z" transform="translate(-220.752 -259.135)"/>
    <path id="패스_548" data-name="패스 548" d="M228.23,274.073H222.52v-2.15h3.561v-3.272h2.15Z" transform="translate(-216.624 -257.45)"/>
    <rect id="사각형_506" data-name="사각형 506" width="11.988" height="2.15" transform="translate(39.012 5.838)"/>
    <rect id="사각형_507" data-name="사각형 507" width="8.677" height="2.15" transform="translate(39.155 11.557)"/>
  </g>
</svg>
