<svg id="btn_mo_option_unfold" xmlns="http://www.w3.org/2000/svg" width="48" height="20" viewBox="0 0 48 20">
  <g id="btn" fill="#fff" stroke="#d7d7d7" stroke-width="1">
    <path d="M10,0H38A10,10,0,0,1,48,10V20a0,0,0,0,1,0,0H0a0,0,0,0,1,0,0V10A10,10,0,0,1,10,0Z" stroke="none"/>
    <path d="M10,.5H38A9.5,9.5,0,0,1,47.5,10v9a.5.5,0,0,1-.5.5H1A.5.5,0,0,1,.5,19V10A9.5,9.5,0,0,1,10,.5Z" fill="none"/>
  </g>
  <g id="ic_mo_arrow_closed_big__66" data-name="ic_mo_arrow_closed_big_#66" transform="translate(33 19) rotate(180)">
    <rect id="area" width="18" height="18" fill="none"/>
    <path id="arrow" d="M0,12,6,6,0,0" transform="translate(3 12) rotate(-90)" fill="none" stroke="#666" stroke-linecap="round" stroke-linejoin="round" stroke-width="2"/>
  </g>
  <rect id="line" width="46" height="1" transform="translate(1 19)" fill="#fff"/>
</svg>
