<svg xmlns="http://www.w3.org/2000/svg" width="38" height="39" viewBox="0 0 38 39">
  <g id="img_ic_faq" transform="translate(-41 -20)">
    <path id="패스_540" data-name="패스 540" d="M516.021,173.657h-38v-2.45h35.245l-3.07-26.022H482.725l-1.973,16.76-2.431-.286,2.228-18.924h31.825Z" transform="translate(-437.021 -114.657)"/>
    <path id="패스_541" data-name="패스 541" d="M503.932,143.985h-2.5v-1.947a4.717,4.717,0,1,0-9.428,0v1.947h-2.5v-1.947a7.216,7.216,0,1,1,14.428,0Z" transform="translate(-437.398 -114.657)"/>
    <path id="합치기_8" data-name="합치기 8" d="M-1209.336-6795.843v-2.511h2.5v2.511Zm-.056-3.752v-3.777h1.251c1.711,0,3.1-1.065,3.1-2.372,0-1.439-1.217-2.369-3.1-2.369h-1.458v-2.5h1.458c3.3,0,5.6,2,5.6,4.87a5.084,5.084,0,0,1-4.355,4.75v1.4Z" transform="translate(1267.198 6847.229)" stroke="rgba(0,0,0,0)" stroke-miterlimit="10" stroke-width="1"/>
  </g>
</svg>
