<svg id="ic_star_default" xmlns="http://www.w3.org/2000/svg" width="24" height="24" viewBox="0 0 24 24">
  <rect id="area" width="24" height="24" fill="none"/>
  <path id="star" d="M166.916,407.913l2.375,4.759,5.312.763a.738.738,0,0,1,.416,1.263l-3.844,3.7.908,5.231a.747.747,0,0,1-1.086.78l-4.751-2.47-4.75,2.47a.747.747,0,0,1-1.086-.78l.907-5.231-3.843-3.7a.738.738,0,0,1,.415-1.263l5.312-.763,2.376-4.759A.752.752,0,0,1,166.916,407.913Z" transform="translate(-154.245 -403.5)" fill="#d7d7d7"/>
</svg>
