<svg xmlns="http://www.w3.org/2000/svg" width="90" height="18" viewBox="0 0 90 18">
  <g id="ic_star_default_small" transform="translate(72)">
    <rect id="area" width="18" height="18" fill="none"/>
    <path id="star" d="M164.766,407.816l1.847,3.639,4.131.584a.562.562,0,0,1,.323.966l-2.99,2.833.706,4a.579.579,0,0,1-.845.6l-3.7-1.889-3.695,1.889a.579.579,0,0,1-.845-.6l.705-4L157.421,413a.562.562,0,0,1,.323-.966l4.131-.584,1.848-3.639A.589.589,0,0,1,164.766,407.816Z" transform="translate(-155.245 -404.5)" fill="#d7d7d7"/>
  </g>
  <g id="ic_star_active__00_small" data-name="ic_star_active_#00_small" transform="translate(36)">
    <rect id="area-2" data-name="area" width="18" height="18" fill="none"/>
    <path id="star-2" data-name="star" d="M164.766,407.816l1.847,3.639,4.131.584a.562.562,0,0,1,.323.966l-2.99,2.833.706,4a.579.579,0,0,1-.845.6l-3.7-1.889-3.695,1.889a.579.579,0,0,1-.845-.6l.705-4L157.421,413a.562.562,0,0,1,.323-.966l4.131-.584,1.848-3.639A.589.589,0,0,1,164.766,407.816Z" transform="translate(-155.245 -404.5)" fill="#d7d7d7"/>
  </g>
  <g id="ic_star_active__00_small-2" data-name="ic_star_active_#00_small" transform="translate(54)">
    <rect id="area-3" data-name="area" width="18" height="18" fill="none"/>
    <path id="star-3" data-name="star" d="M164.766,407.816l1.847,3.639,4.131.584a.562.562,0,0,1,.323.966l-2.99,2.833.706,4a.579.579,0,0,1-.845.6l-3.7-1.889-3.695,1.889a.579.579,0,0,1-.845-.6l.705-4L157.421,413a.562.562,0,0,1,.323-.966l4.131-.584,1.848-3.639A.589.589,0,0,1,164.766,407.816Z" transform="translate(-155.245 -404.5)" fill="#d7d7d7"/>
  </g>
  <g id="ic_star_active__00_small-3" data-name="ic_star_active_#00_small">
    <rect id="area-4" data-name="area" width="18" height="18" fill="none"/>
    <path id="star-4" data-name="star" d="M164.766,407.816l1.847,3.639,4.131.584a.562.562,0,0,1,.323.966l-2.99,2.833.706,4a.579.579,0,0,1-.845.6l-3.7-1.889-3.695,1.889a.579.579,0,0,1-.845-.6l.705-4L157.421,413a.562.562,0,0,1,.323-.966l4.131-.584,1.848-3.639A.589.589,0,0,1,164.766,407.816Z" transform="translate(-155.245 -404.5)" fill="#d7d7d7"/>
  </g>
  <g id="ic_star_active__00_small-4" data-name="ic_star_active_#00_small" transform="translate(18)">
    <rect id="area-5" data-name="area" width="18" height="18" fill="none"/>
    <path id="star-5" data-name="star" d="M164.766,407.816l1.847,3.639,4.131.584a.562.562,0,0,1,.323.966l-2.99,2.833.706,4a.579.579,0,0,1-.845.6l-3.7-1.889-3.695,1.889a.579.579,0,0,1-.845-.6l.705-4L157.421,413a.562.562,0,0,1,.323-.966l4.131-.584,1.848-3.639A.589.589,0,0,1,164.766,407.816Z" transform="translate(-155.245 -404.5)" fill="#d7d7d7"/>
  </g>
</svg>
