<svg xmlns="http://www.w3.org/2000/svg" width="180" height="36" viewBox="0 0 180 36">
  <g id="ic_star_active_big">
    <rect id="area" width="36" height="36" fill="none"/>
    <path id="star" d="M172.288,408.155l3.695,7.559,8.262,1.213a1.179,1.179,0,0,1,.646,2.005l-5.98,5.884,1.412,8.307a1.167,1.167,0,0,1-1.69,1.24l-7.391-3.922-7.39,3.922a1.167,1.167,0,0,1-1.69-1.24l1.411-8.307-5.979-5.884a1.179,1.179,0,0,1,.645-2.005l8.263-1.213,3.7-7.559A1.159,1.159,0,0,1,172.288,408.155Z" transform="translate(-153.245 -402.5)" fill="#346dd0"/>
  </g>
  <g id="ic_star_active_big-2" data-name="ic_star_active_big" transform="translate(36)">
    <rect id="area-2" data-name="area" width="36" height="36" fill="none"/>
    <path id="star-2" data-name="star" d="M172.288,408.155l3.695,7.559,8.262,1.213a1.179,1.179,0,0,1,.646,2.005l-5.98,5.884,1.412,8.307a1.167,1.167,0,0,1-1.69,1.24l-7.391-3.922-7.39,3.922a1.167,1.167,0,0,1-1.69-1.24l1.411-8.307-5.979-5.884a1.179,1.179,0,0,1,.645-2.005l8.263-1.213,3.7-7.559A1.159,1.159,0,0,1,172.288,408.155Z" transform="translate(-153.245 -402.5)" fill="#346dd0"/>
  </g>
  <g id="ic_star_active_big-3" data-name="ic_star_active_big" transform="translate(72)">
    <rect id="area-3" data-name="area" width="36" height="36" fill="none"/>
    <path id="star-3" data-name="star" d="M172.288,408.155l3.695,7.559,8.262,1.213a1.179,1.179,0,0,1,.646,2.005l-5.98,5.884,1.412,8.307a1.167,1.167,0,0,1-1.69,1.24l-7.391-3.922-7.39,3.922a1.167,1.167,0,0,1-1.69-1.24l1.411-8.307-5.979-5.884a1.179,1.179,0,0,1,.645-2.005l8.263-1.213,3.7-7.559A1.159,1.159,0,0,1,172.288,408.155Z" transform="translate(-153.245 -402.5)" fill="#346dd0"/>
  </g>
  <g id="ic_star_active_big-4" data-name="ic_star_active_big" transform="translate(108)">
    <rect id="area-4" data-name="area" width="36" height="36" fill="none"/>
    <path id="star-4" data-name="star" d="M172.288,408.155l3.695,7.559,8.262,1.213a1.179,1.179,0,0,1,.646,2.005l-5.98,5.884,1.412,8.307a1.167,1.167,0,0,1-1.69,1.24l-7.391-3.922-7.39,3.922a1.167,1.167,0,0,1-1.69-1.24l1.411-8.307-5.979-5.884a1.179,1.179,0,0,1,.645-2.005l8.263-1.213,3.7-7.559A1.159,1.159,0,0,1,172.288,408.155Z" transform="translate(-153.245 -402.5)" fill="#346dd0"/>
  </g>
  <g id="ic_star_active_big-5" data-name="ic_star_active_big" transform="translate(144)">
    <rect id="area-5" data-name="area" width="36" height="36" fill="none"/>
    <path id="star-5" data-name="star" d="M172.288,408.155l3.695,7.559,8.262,1.213a1.179,1.179,0,0,1,.646,2.005l-5.98,5.884,1.412,8.307a1.167,1.167,0,0,1-1.69,1.24l-7.391-3.922-7.39,3.922a1.167,1.167,0,0,1-1.69-1.24l1.411-8.307-5.979-5.884a1.179,1.179,0,0,1,.645-2.005l8.263-1.213,3.7-7.559A1.159,1.159,0,0,1,172.288,408.155Z" transform="translate(-153.245 -402.5)" fill="#346dd0"/>
  </g>
</svg>
