<svg xmlns="http://www.w3.org/2000/svg" width="44" height="46" viewBox="0 0 44 46">
  <g id="exchange" transform="translate(-0.001 -0.501)">
    <path id="패스_557" data-name="패스 557" d="M43.556,10.449,26.419.611a.827.827,0,0,0-.827,0L19.133,4.319a.852.852,0,0,0-.369.212L8.456,10.449a.9.9,0,0,0-.446.788v11.9a11.3,11.3,0,0,0-4.657,2.957,12.364,12.364,0,0,0-2.191,13.7.842.842,0,0,0,1.149.413.917.917,0,0,0,.4-1.2A10.506,10.506,0,0,1,4.568,27.362a9.42,9.42,0,0,1,13.741,0,10.486,10.486,0,0,1,0,14.365A9.407,9.407,0,0,1,7.172,43.673a.842.842,0,0,0-1.149.413.917.917,0,0,0,.395,1.2A10.994,10.994,0,0,0,11.431,46.5,11.192,11.192,0,0,0,19.524,43a11.982,11.982,0,0,0,2.365-3.587l3.7,2.126a.827.827,0,0,0,.827,0L43.556,31.7A.906.906,0,0,0,44,30.911V24.668a.86.86,0,1,0-1.719,0V30.38L26.868,39.229V21.6l5.087-2.921v4.63a.907.907,0,0,0,.422.774.828.828,0,0,0,.852.014L36.9,21.987a.9.9,0,0,0,.445-.787V15.589l4.937-2.834V17.48a.86.86,0,1,0,1.719,0V11.237a.905.905,0,0,0-.446-.788ZM26.005,2.424l15.351,8.813-4.842,2.78L21.163,5.2Zm0,17.625L10.655,11.237l5.02-2.882,15.351,8.812Zm6.806-3.907L17.46,7.33l1.917-1.1,15.351,8.812ZM19.524,26.091a11.094,11.094,0,0,0-9.795-3.369V12.755l15.42,8.852V39.232L22.473,37.7a12.526,12.526,0,0,0,.4-3.152,12.155,12.155,0,0,0-3.349-8.453Zm16.1-5.422-1.953,1.124V17.7l1.953-1.121Zm0,0" transform="translate(0 0)"/>
    <path id="패스_559" data-name="패스 559" d="M68.806,328.113a.984.984,0,0,0,.7-1.68l-.682-.682h5.817a2.559,2.559,0,0,1,0,5.118H71.19a.984.984,0,1,0,0,1.968h3.447a4.527,4.527,0,1,0,0-9.054H68.82l.682-.682a.984.984,0,0,0-1.392-1.392l-2.362,2.362a.985.985,0,0,0,0,1.392l2.362,2.362a.981.981,0,0,0,.7.288Zm0,0" transform="translate(-61.016 -291.798)"/>
  </g>
</svg>
