<svg xmlns="http://www.w3.org/2000/svg" width="60" height="60" viewBox="0 0 60 60">
  <g id="icon" transform="translate(-586.844 -1465)">
    <rect id="area" width="60" height="60" transform="translate(586.844 1465)" fill="none"/>
    <g id="그룹_139" data-name="그룹 139">
      <g id="타원_13" data-name="타원 13" transform="translate(605.844 1469)" fill="none" stroke="#fff" stroke-width="2">
        <circle cx="11" cy="11" r="11" stroke="none"/>
        <circle cx="11" cy="11" r="10" fill="none"/>
      </g>
      <path id="패스_282" data-name="패스 282" d="M607.828,1487s-6.737,4-7.985,14-1.5,13.583,0,15,4.99,6,16.969,6" transform="translate(0.033 -1)" fill="none" stroke="#fff" stroke-linecap="round" stroke-width="2"/>
      <path id="패스_283" data-name="패스 283" d="M607.794,1487s6.738,4,7.985,14,1.5,13.583,0,15-4.99,6-16.969,6" transform="translate(18.033 -1)" fill="none" stroke="#fff" stroke-linecap="round" stroke-width="2"/>
      <g id="그룹_133" data-name="그룹 133" transform="translate(0 -1)">
        <path id="패스_284" data-name="패스 284" d="M613.844,1491v3a.917.917,0,0,0,1,1" fill="none" stroke="#fff" stroke-linecap="round" stroke-linejoin="round" stroke-width="2"/>
        <path id="패스_285" data-name="패스 285" d="M616.844,1495h-2" fill="none" stroke="#fff" stroke-linecap="round" stroke-width="2"/>
        <path id="패스_286" data-name="패스 286" d="M614.843,1491v3a.917.917,0,0,1-1,1" transform="translate(5)" fill="none" stroke="#fff" stroke-linecap="round" stroke-linejoin="round" stroke-width="2"/>
        <path id="패스_287" data-name="패스 287" d="M614.844,1495h2" transform="translate(1.999)" fill="none" stroke="#fff" stroke-linecap="round" stroke-width="2"/>
      </g>
      <path id="패스_288" data-name="패스 288" d="M614.844,1495l-2,16,4,3,4-3-2-16" transform="translate(0 -1)" fill="none" stroke="#fff" stroke-linecap="round" stroke-linejoin="round" stroke-width="2"/>
    </g>
  </g>
</svg>
