<svg id="ic_gear" xmlns="http://www.w3.org/2000/svg" width="18" height="18" viewBox="0 0 18 18">
  <rect id="area" width="18" height="18" fill="none"/>
  <path id="_00" data-name="00" d="M13.67,5.406l-1.076-.234a5.856,5.856,0,0,0-.346-.835l.6-.927a.418.418,0,0,0-.056-.522L11.111,1.212a.418.418,0,0,0-.522-.056l-.927.6a5.856,5.856,0,0,0-.835-.346L8.594.329A.418.418,0,0,0,8.185,0H5.815a.418.418,0,0,0-.409.329L5.172,1.405a5.856,5.856,0,0,0-.835.346l-.927-.6a.418.418,0,0,0-.522.056L1.212,2.888a.418.418,0,0,0-.056.522l.6.927a5.856,5.856,0,0,0-.346.835L.329,5.406A.418.418,0,0,0,0,5.815V8.185a.418.418,0,0,0,.329.409l1.076.234a5.856,5.856,0,0,0,.346.835l-.6.927a.418.418,0,0,0,.056.522l1.676,1.676a.418.418,0,0,0,.522.056l.927-.6a5.856,5.856,0,0,0,.835.346l.234,1.076A.418.418,0,0,0,5.815,14H8.185a.418.418,0,0,0,.409-.329l.234-1.076a5.856,5.856,0,0,0,.835-.346l.927.6a.418.418,0,0,0,.522-.056l1.676-1.676a.418.418,0,0,0,.056-.522l-.6-.927a5.856,5.856,0,0,0,.346-.835l1.076-.234A.418.418,0,0,0,14,8.185V5.815A.418.418,0,0,0,13.67,5.406Zm-.507,2.442-.987.214a.419.419,0,0,0-.314.3A5.019,5.019,0,0,1,11.4,9.477a.418.418,0,0,0,.012.432l.546.85-1.2,1.2-.85-.546a.418.418,0,0,0-.432-.012,5.022,5.022,0,0,1-1.118.463.419.419,0,0,0-.3.314l-.214.987h-1.7l-.214-.987a.419.419,0,0,0-.3-.314A5.019,5.019,0,0,1,4.523,11.4a.418.418,0,0,0-.432.012l-.85.546-1.2-1.2.546-.85A.418.418,0,0,0,2.6,9.477a5.025,5.025,0,0,1-.464-1.118.418.418,0,0,0-.314-.3L.837,7.848v-1.7l.987-.214a.419.419,0,0,0,.314-.3A5.019,5.019,0,0,1,2.6,4.523a.418.418,0,0,0-.012-.432l-.546-.85,1.2-1.2.85.546a.418.418,0,0,0,.432.012,5.022,5.022,0,0,1,1.118-.463.419.419,0,0,0,.3-.314L6.152.836h1.7l.214.987a.419.419,0,0,0,.3.314A5.019,5.019,0,0,1,9.477,2.6a.418.418,0,0,0,.432-.012l.85-.546,1.2,1.2-.546.85a.418.418,0,0,0-.012.432,5.02,5.02,0,0,1,.464,1.118.418.418,0,0,0,.314.3l.987.214Zm0,0" transform="translate(2 2)"/>
  <g id="_00-2" data-name="00" transform="translate(6 6)" fill="none" stroke="#000" stroke-width="1">
    <circle cx="3" cy="3" r="3" stroke="none"/>
    <circle cx="3" cy="3" r="2.5" fill="none"/>
  </g>
</svg>
