<svg id="ic_quick_welfare" xmlns="http://www.w3.org/2000/svg" width="36" height="36" viewBox="0 0 36 36">
  <rect id="area" width="36" height="36" fill="none"/>
  <g id="icon" transform="translate(-2 -3)">
    <path id="패스_207" data-name="패스 207" d="M6,20.833v9.333H8.328A75.565,75.565,0,0,1,19.969,31.5l12.8-8a2.657,2.657,0,0,0,1.164-2.667C33.55,19.167,19.969,25.5,19.969,25.5l-3.492-3.333h3.492s2.328,0,2.328-1.333-3.2-2.778-6.984-3.333L8.328,20.833Z" transform="translate(0 1.5)" fill="none" stroke="#fff" stroke-linecap="round" stroke-linejoin="round" stroke-width="2"/>
    <path id="_00" data-name="00" d="M186.1,401.921h0a3.049,3.049,0,0,0-4.367,0l-.728.741-.728-.741a3.049,3.049,0,0,0-4.367,0h0a3.185,3.185,0,0,0,0,4.447l.728.741h0L181,411l4.367-3.891h0l.728-.741A3.185,3.185,0,0,0,186.1,401.921Z" transform="translate(-155 -392)" fill="none" stroke="#fff" stroke-linejoin="round" stroke-miterlimit="10" stroke-width="2"/>
  </g>
</svg>
