<svg xmlns="http://www.w3.org/2000/svg" width="130" height="130" viewBox="0 0 130 130">
  <g id="_3" data-name="3" transform="translate(-1225 -1020)">
    <circle id="타원_4" data-name="타원 4" cx="65" cy="65" r="65" transform="translate(1225 1020)" fill="#12b5cf"/>
    <g id="icon">
      <path id="패스_265" data-name="패스 265" d="M1265,1058v51h51" fill="none" stroke="#fff" stroke-linecap="round" stroke-width="2"/>
      <path id="패스_266" data-name="패스 266" d="M1271,1061h4" fill="none" stroke="#fff" stroke-width="2"/>
      <path id="패스_267" data-name="패스 267" d="M1271,1061h4" transform="translate(0 5)" fill="none" stroke="#fff" stroke-width="2"/>
      <path id="패스_268" data-name="패스 268" d="M1271,1061h4" transform="translate(0 10)" fill="none" stroke="#fff" stroke-width="2"/>
      <path id="패스_269" data-name="패스 269" d="M1271,1061h4" transform="translate(0 15)" fill="none" stroke="#fff" stroke-width="2"/>
      <path id="패스_270" data-name="패스 270" d="M1269,1103.167l13-17,16,9h0l16-22" transform="translate(2 -1.167)" fill="none" stroke="#fff" stroke-width="2"/>
      <circle id="타원_9" data-name="타원 9" cx="2.5" cy="2.5" r="2.5" transform="translate(1270 1098)" fill="#fff"/>
      <circle id="타원_10" data-name="타원 10" cx="2.5" cy="2.5" r="2.5" transform="translate(1282 1083)" fill="#fff"/>
      <circle id="타원_11" data-name="타원 11" cx="2.5" cy="2.5" r="2.5" transform="translate(1298 1091)" fill="#fff"/>
      <circle id="타원_12" data-name="타원 12" cx="2.5" cy="2.5" r="2.5" transform="translate(1313 1070)" fill="#fff"/>
    </g>
  </g>
</svg>
