<svg id="ic_mo_star_default_small" xmlns="http://www.w3.org/2000/svg" width="18" height="18" viewBox="0 0 18 18">
  <rect id="area" width="18" height="18" fill="none"/>
  <path id="star" d="M165.841,407.864l2.111,4.2,4.721.674a.65.65,0,0,1,.369,1.114l-3.417,3.269.807,4.615a.663.663,0,0,1-.966.689l-4.223-2.179-4.223,2.179a.663.663,0,0,1-.966-.689l.806-4.615-3.416-3.269a.65.65,0,0,1,.369-1.114l4.721-.674,2.112-4.2A.671.671,0,0,1,165.841,407.864Z" transform="translate(-156.245 -405.5)" fill="#d7d7d7"/>
</svg>
