<svg xmlns="http://www.w3.org/2000/svg" width="50" height="50" viewBox="0 0 50 50">
  <g id="ic_notice" transform="translate(-467 -157)">
    <g id="타원_15" data-name="타원 15" transform="translate(467 157)" fill="none" stroke="#d7d7d7" stroke-width="2">
      <circle cx="25" cy="25" r="25" stroke="none"/>
      <circle cx="25" cy="25" r="24" fill="none"/>
    </g>
    <g id="ic_mo_barricade" transform="translate(480 170)">
      <rect id="area" width="24" height="24" fill="none"/>
      <g id="icon" transform="translate(-1 1)">
        <g id="_00" data-name="00" transform="translate(1 3)" fill="none" stroke="#bbb" stroke-width="2">
          <rect width="24" height="12" rx="1" stroke="none"/>
          <rect x="1" y="1" width="22" height="10" fill="none"/>
        </g>
        <g id="_00-2" data-name="00" transform="translate(4 -1)" fill="none" stroke="#bbb" stroke-width="2">
          <rect width="6" height="6" rx="2" stroke="none"/>
          <rect x="1" y="1" width="4" height="4" rx="1" fill="none"/>
        </g>
        <g id="_00-3" data-name="00" transform="translate(16 -1)" fill="none" stroke="#bbb" stroke-width="2">
          <rect width="6" height="6" rx="2" stroke="none"/>
          <rect x="1" y="1" width="4" height="4" rx="1" fill="none"/>
        </g>
        <g id="_00-4" data-name="00" transform="translate(4 13)" fill="none" stroke="#bbb" stroke-width="2">
          <rect width="6" height="10" rx="2" stroke="none"/>
          <rect x="1" y="1" width="4" height="8" rx="1" fill="none"/>
        </g>
        <g id="_00-5" data-name="00" transform="translate(16 13)" fill="none" stroke="#bbb" stroke-width="2">
          <rect width="6" height="10" rx="2" stroke="none"/>
          <rect x="1" y="1" width="4" height="8" rx="1" fill="none"/>
        </g>
        <path id="_00-6" data-name="00" d="M4,0H6L2,10H0Z" transform="translate(2 4)" fill="#bbb"/>
        <path id="_00-7" data-name="00" d="M4,0H6L2,10H0Z" transform="translate(6 4)" fill="#bbb"/>
        <path id="_00-8" data-name="00" d="M4,0H6L2,10H0Z" transform="translate(10 4)" fill="#bbb"/>
        <path id="_00-9" data-name="00" d="M4,0H6L2,10H0Z" transform="translate(14 4)" fill="#bbb"/>
        <path id="_00-10" data-name="00" d="M4,0H6L2,10H0Z" transform="translate(18 4)" fill="#bbb"/>
      </g>
    </g>
  </g>
</svg>
