<svg xmlns="http://www.w3.org/2000/svg" width="34" height="34.001" viewBox="0 0 34 34.001">
  <g id="img_ic_faq" transform="translate(0 0)">
    <path id="패스_540" data-name="패스 540" d="M512.021,170.735h-34v-2.219h31.535l-2.747-23.563H482.23l-1.765,15.177-2.175-.259,1.993-17.136h28.475Z" transform="translate(-478.021 -136.734)"/>
    <path id="패스_541" data-name="패스 541" d="M501.5,142.657h-2.079v-1.67a3.929,3.929,0,1,0-7.841,0v1.67H489.5v-1.67a6.009,6.009,0,1,1,12,0Z" transform="translate(-479.803 -134.657)"/>
    <g id="그룹_110" data-name="그룹 110" transform="translate(14.446 13.603)">
      <path id="패스_542" data-name="패스 542" d="M497.732,160.477h-2.478V157.47h1.239c1.7,0,3.078-.847,3.078-1.889,0-1.145-1.207-1.886-3.078-1.886h-1.444V151.7h1.444c3.272,0,5.556,1.595,5.556,3.876,0,1.842-1.848,3.388-4.317,3.782Z" transform="translate(-495.049 -151.704)"/>
      <rect id="사각형_505" data-name="사각형 505" width="2.15" height="2.16" transform="translate(0.227 9.84)"/>
    </g>
  </g>
</svg>
