<svg xmlns="http://www.w3.org/2000/svg" width="35" height="36" viewBox="0 0 35 36">
  <g id="exchange" transform="translate(-0.001 -0.501)">
    <path id="패스_557" data-name="패스 557" d="M34.647,8.286,21.015.587a.667.667,0,0,0-.658,0l-5.138,2.9a.68.68,0,0,0-.293.166l-8.2,4.631a.706.706,0,0,0-.355.616v9.311a9.007,9.007,0,0,0-3.7,2.314A9.557,9.557,0,0,0,.924,31.251a.675.675,0,0,0,.914.323.712.712,0,0,0,.314-.94,8.121,8.121,0,0,1,1.481-9.112,7.577,7.577,0,0,1,10.93,0,8.111,8.111,0,0,1,0,11.242,7.572,7.572,0,0,1-8.858,1.524.675.675,0,0,0-.914.323.712.712,0,0,0,.314.94,8.862,8.862,0,0,0,3.988.949,8.973,8.973,0,0,0,6.438-2.742,9.366,9.366,0,0,0,1.881-2.807l2.946,1.664a.667.667,0,0,0,.658,0l13.631-7.7A.707.707,0,0,0,35,24.3V19.414a.684.684,0,1,0-1.367,0v4.47L21.372,30.81V17.016l4.047-2.286v3.623a.707.707,0,0,0,.336.605.668.668,0,0,0,.677.011l2.921-1.654a.706.706,0,0,0,.354-.616V12.309l3.927-2.218v3.7a.684.684,0,1,0,1.367,0V8.9a.706.706,0,0,0-.355-.616ZM20.686,2.006,32.9,8.9l-3.852,2.176-12.211-6.9Zm0,13.794L8.475,8.9l3.993-2.255,12.211,6.9ZM26.1,12.742l-12.211-6.9,1.525-.862,12.211,6.9ZM15.53,20.528a8.931,8.931,0,0,0-7.791-2.637v-7.8l12.266,6.928V30.812l-2.129-1.2a9.654,9.654,0,0,0,.318-2.466,9.43,9.43,0,0,0-2.664-6.615Zm12.81-4.243-1.554.88V13.959l1.554-.878Zm0,0" transform="translate(0 0)"/>
  </g>
</svg>
