<svg xmlns="http://www.w3.org/2000/svg" width="60" height="60" viewBox="0 0 60 60">
  <g id="icon" transform="translate(-1260 -1055)">
    <rect id="area" width="60" height="60" transform="translate(1260 1055)" fill="none"/>
    <g id="그룹_141" data-name="그룹 141" transform="translate(0 -3)">
      <g id="사각형_561" data-name="사각형 561" transform="translate(1274 1072)" fill="none" stroke="#fff" stroke-linecap="round" stroke-linejoin="round" stroke-width="2">
        <rect width="32" height="44" stroke="none"/>
        <rect x="1" y="1" width="30" height="42" fill="none"/>
      </g>
      <rect id="사각형_562" data-name="사각형 562" width="2" height="8" rx="1" transform="translate(1289 1065)" fill="#fff"/>
      <g id="타원_26" data-name="타원 26" transform="translate(1287 1060)" fill="none" stroke="#fff" stroke-width="2">
        <circle cx="3" cy="3" r="3" stroke="none"/>
        <circle cx="3" cy="3" r="2" fill="none"/>
      </g>
      <g id="사각형_563" data-name="사각형 563" transform="translate(1280 1079)" fill="none" stroke="#fff" stroke-linecap="round" stroke-linejoin="round" stroke-width="2">
        <rect width="20" height="16" stroke="none"/>
        <rect x="1" y="1" width="18" height="14" fill="none"/>
      </g>
      <rect id="사각형_564" data-name="사각형 564" width="2" height="6" rx="1" transform="translate(1284 1088)" fill="#fff"/>
      <rect id="사각형_565" data-name="사각형 565" width="2" height="11" rx="1" transform="translate(1289 1083)" fill="#fff"/>
      <rect id="사각형_566" data-name="사각형 566" width="2" height="4" rx="1" transform="translate(1294 1090)" fill="#fff"/>
      <circle id="타원_27" data-name="타원 27" cx="2" cy="2" r="2" transform="translate(1282 1100)" fill="#fff"/>
      <circle id="타원_28" data-name="타원 28" cx="2" cy="2" r="2" transform="translate(1288 1100)" fill="#fff"/>
      <circle id="타원_29" data-name="타원 29" cx="2" cy="2" r="2" transform="translate(1294 1100)" fill="#fff"/>
    </g>
  </g>
</svg>
 