<svg xmlns="http://www.w3.org/2000/svg" width="60" height="60" viewBox="0 0 60 60">
  <g id="icon" transform="translate(-1260 -1055)">
    <rect id="area" width="60" height="60" transform="translate(1260 1055)" fill="none"/>
    <g id="그룹_140" data-name="그룹 140" transform="translate(895.968 78.703)">
      <path id="패스_222" data-name="패스 222" d="M398.441,1023.893a10.108,10.108,0,0,1-10.1-10.1v-2.145a.75.75,0,0,1,.75-.75h18.7a.75.75,0,0,1,.75.75v2.145A10.109,10.109,0,0,1,398.441,1023.893Zm-8.6-11.492v1.4a8.6,8.6,0,0,0,17.2,0v-1.4Z" transform="translate(-0.314 -0.617)" fill="#fff"/>
      <rect id="사각형_560" data-name="사각형 560" width="23.918" height="2.231" transform="translate(385.657 1022.844)" fill="#fff"/>
      <path id="패스_223" data-name="패스 223" d="M407.68,1019.577a3.544,3.544,0,0,1-1.166-.189.682.682,0,0,1-.446-.9.788.788,0,0,1,.985-.408,2.441,2.441,0,0,0,1.765-.162,2.851,2.851,0,0,0,1.564-1.683,1.922,1.922,0,0,0-.488-2.077,1.648,1.648,0,0,0-1.68.157.807.807,0,0,1-1.048-.243.667.667,0,0,1,.265-.959,3.049,3.049,0,0,1,3.4-.061,3.227,3.227,0,0,1,1.018,3.577,4.293,4.293,0,0,1-2.35,2.541A4.432,4.432,0,0,1,407.68,1019.577Z" transform="translate(0.013 -0.28)" fill="#fff"/>
      <circle id="타원_22" data-name="타원 22" cx="2.5" cy="2.5" r="2.5" transform="translate(392.032 984.297)" fill="#fff"/>
      <circle id="타원_24" data-name="타원 24" cx="2.5" cy="2.5" r="2.5" transform="translate(399.032 984.297)" fill="#fff"/>
      <circle id="타원_25" data-name="타원 25" cx="2.5" cy="2.5" r="2.5" transform="translate(406.032 984.297)" fill="#fff"/>
      <path id="패스_225" data-name="패스 225" d="M411.341,1035.3H372.774a.741.741,0,0,1-.742-.739V978.036a.741.741,0,0,1,.742-.739h38.9a4.359,4.359,0,0,1,4.363,4.347v13.879a.741.741,0,0,1-.742.739H382.74v28.4h28.6a4.688,4.688,0,0,1,4.691,4.673v1.291A4.688,4.688,0,0,1,411.341,1035.3Zm-37.825-1.479h37.825a3.2,3.2,0,0,0,3.207-3.195v-1.291a3.2,3.2,0,0,0-3.207-3.195H382a.741.741,0,0,1-.742-.739V995.522a.741.741,0,0,1,.742-.739h32.55V981.644a2.876,2.876,0,0,0-2.878-2.868H373.516Z" fill="#fff"/>
      <path id="패스_226" data-name="패스 226" d="M401.071,1001.037h-5.354a.833.833,0,0,1-.823-.842v-4.315a.833.833,0,0,1,.823-.842h5.354a.833.833,0,0,1,.823.842v4.315A.833.833,0,0,1,401.071,1001.037Zm-4.531-1.685h3.707v-2.631H396.54Z" transform="translate(-0.861 0.26)" fill="#fff"/>
    </g>
  </g>
</svg>
