<svg xmlns="http://www.w3.org/2000/svg" width="60" height="60" viewBox="0 0 60 60">
  <g id="icon" transform="translate(-1260 -1055)">
    <rect id="area" width="60" height="60" transform="translate(1260 1055)" fill="none"/>
    <g id="그룹_139" data-name="그룹 139" transform="translate(2 1)">
      <path id="패스_217" data-name="패스 217" d="M1261,1078v20h54v-20l-7-17h-40Z" fill="none" stroke="#fff" stroke-linecap="round" stroke-linejoin="round" stroke-width="2"/>
      <g id="패스_219" data-name="패스 219" transform="translate(1262 1094.008)" fill="none">
        <path d="M5,3c2.761,0,5-.348,5,3.33s-1.111,6.661-5,6.661S0,10.01,0,6.331,2.239,3,5,3Z" stroke="none"/>
        <path d="M 3.727829933166504 4.992044448852539 C 2.597686767578125 4.992044448852539 2.274234771728516 5.093657493591309 2.1824951171875 5.156648635864258 C 2.161543846130371 5.187740325927734 2 5.457269668579102 2 6.331264495849609 C 2 7.95751428604126 2.252769947052002 9.215953826904297 2.730989933013916 9.970554351806641 C 3.032390117645264 10.44614410400391 3.562679767608643 10.9920539855957 5 10.9920539855957 C 6.437319755554199 10.9920539855957 6.967609882354736 10.44614410400391 7.269010066986084 9.970554351806641 C 7.747230052947998 9.215953826904297 8 7.95751428604126 8 6.331264495849609 C 8 5.457525253295898 7.838587760925293 5.187788963317871 7.81755542755127 5.156540870666504 C 7.725749492645264 5.09357738494873 7.402193069458008 4.992034912109375 6.272219657897949 4.992044448852539 C 6.080029964447021 4.992044448852539 5.883140087127686 4.994133949279785 5.682360172271729 4.996224403381348 C 5.462250232696533 4.998504638671875 5.234650135040283 5.000874519348145 5 5.000874519348145 C 4.765389919281006 5.000874519348145 4.53794002532959 4.998504638671875 4.31797981262207 4.996224403381348 C 4.117129802703857 4.994133949279785 3.920179843902588 4.992044448852539 3.727829933166504 4.992044448852539 M 3.727834701538086 2.992048263549805 C 4.134120941162109 2.992048263549805 4.560269355773926 3.000874519348145 5 3.000874519348145 C 7.761419296264648 3.000876426696777 10 2.652614593505859 10 6.331264495849609 C 10 10.00991439819336 8.888890266418457 12.9920539855957 5 12.9920539855957 C 1.111109733581543 12.9920539855957 0 10.00991439819336 0 6.331264495849609 C 0 3.238405227661133 1.582722663879395 2.992048263549805 3.727834701538086 2.992048263549805 Z" stroke="none" fill="#fff"/>
      </g>
      <g id="패스_220" data-name="패스 220" transform="translate(1303 1094.008)" fill="none">
        <path d="M5,3c2.761,0,5-.348,5,3.33s-1.111,6.661-5,6.661S0,10.01,0,6.331,2.239,3,5,3Z" stroke="none"/>
        <path d="M 3.727829933166504 4.992044448852539 C 2.597686767578125 4.992044448852539 2.274234771728516 5.093657493591309 2.1824951171875 5.156648635864258 C 2.161543846130371 5.187740325927734 2 5.457269668579102 2 6.331264495849609 C 2 7.95751428604126 2.252769947052002 9.215953826904297 2.730989933013916 9.970554351806641 C 3.032390117645264 10.44614410400391 3.562679767608643 10.9920539855957 5 10.9920539855957 C 6.437319755554199 10.9920539855957 6.967609882354736 10.44614410400391 7.269010066986084 9.970554351806641 C 7.747230052947998 9.215953826904297 8 7.95751428604126 8 6.331264495849609 C 8 5.457525253295898 7.838587760925293 5.187788963317871 7.81755542755127 5.156540870666504 C 7.725749492645264 5.09357738494873 7.402193069458008 4.992034912109375 6.272219657897949 4.992044448852539 C 6.080029964447021 4.992044448852539 5.883140087127686 4.994133949279785 5.682360172271729 4.996224403381348 C 5.462250232696533 4.998504638671875 5.234650135040283 5.000874519348145 5 5.000874519348145 C 4.765389919281006 5.000874519348145 4.53794002532959 4.998504638671875 4.31797981262207 4.996224403381348 C 4.117129802703857 4.994133949279785 3.920179843902588 4.992044448852539 3.727829933166504 4.992044448852539 M 3.727834701538086 2.992048263549805 C 4.134120941162109 2.992048263549805 4.560269355773926 3.000874519348145 5 3.000874519348145 C 7.761419296264648 3.000876426696777 10 2.652614593505859 10 6.331264495849609 C 10 10.00991439819336 8.888890266418457 12.9920539855957 5 12.9920539855957 C 1.111109733581543 12.9920539855957 0 10.00991439819336 0 6.331264495849609 C 0 3.238405227661133 1.582722663879395 2.992048263549805 3.727834701538086 2.992048263549805 Z" stroke="none" fill="#fff"/>
      </g>
      <path id="패스_221" data-name="패스 221" d="M1275.167,1066,1272,1076h38l-3.167-10Z" transform="translate(-3 1)" fill="none" stroke="#fff" stroke-linecap="round" stroke-linejoin="round" stroke-width="2"/>
      <g id="타원_20" data-name="타원 20" transform="translate(1266 1083)" fill="none" stroke="#fff" stroke-width="2">
        <circle cx="4.5" cy="4.5" r="4.5" stroke="none"/>
        <circle cx="4.5" cy="4.5" r="3.5" fill="none"/>
      </g>
      <g id="타원_21" data-name="타원 21" transform="translate(1302 1083)" fill="none" stroke="#fff" stroke-width="2">
        <circle cx="4.5" cy="4.5" r="4.5" stroke="none"/>
        <circle cx="4.5" cy="4.5" r="3.5" fill="none"/>
      </g>
      <rect id="사각형_558" data-name="사각형 558" width="19" height="2" rx="1" transform="translate(1279 1084)" fill="#fff"/>
      <rect id="사각형_559" data-name="사각형 559" width="19" height="2" rx="1" transform="translate(1279 1089)" fill="#fff"/>
    </g>
  </g>
</svg>
