<svg id="로고_ICTmall" xmlns="http://www.w3.org/2000/svg" width="203" height="24" viewBox="0 0 203 24">
  <rect id="사각형_465" data-name="사각형 465" width="7.462" height="23.021" transform="translate(0 0.256)" fill="#346dd0"/>
  <g id="그룹_103" data-name="그룹 103" transform="translate(10.773 0.256)">
    <path id="패스_195" data-name="패스 195" d="M169.543,60.29s-11.794.635-11.794,11.511h7.077s-.023-4.8,5.715-5.756h12.52l4.355-5.755Z" transform="translate(-157.738 -60.29)" fill="#346dd0"/>
    <path id="패스_196" data-name="패스 196" d="M169.532,83.1s-11.794-.635-11.794-11.51h7.076s-.022,4.8,5.716,5.755h16.942L183.208,83.1Z" transform="translate(-157.738 -60.29)" fill="#346dd0"/>
  </g>
  <path id="패스_197" data-name="패스 197" d="M188.051,66.045h10.615V83.209h7.3V66.045h7.984l4.491-5.755h-25.81Z" transform="translate(-146.982 -60.034)" fill="#346dd0"/>
  <g id="그룹_104" data-name="그룹 104" transform="translate(67.501 0.439)">
    <path id="패스_198" data-name="패스 198" d="M235.975,76.28v7.745s-2.665.25-3.731-1.882l-6.929-12.259-3.742,13.858H214.5l6.022-20.254a9.2,9.2,0,0,1,1.6-2.132,3.991,3.991,0,0,1,4.173-.533c1.157.533,2.223,2.665,2.756,3.731S235.975,76.28,235.975,76.28Z" transform="translate(-214.496 -60.473)"/>
    <path id="패스_199" data-name="패스 199" d="M235.975,76.28v7.745s2.665.25,3.731-1.882l6.929-12.259,3.742,13.858h7.076l-6.022-20.254a9.2,9.2,0,0,0-1.6-2.132,3.991,3.991,0,0,0-4.173-.533c-1.156.533-2.222,2.665-2.755,3.731S235.975,76.28,235.975,76.28Z" transform="translate(-214.496 -60.473)"/>
  </g>
  <path id="패스_200" data-name="패스 200" d="M257.827,83.209h8.018l10.637-15.457,6.929,9.594H273.284l-4.173,5.863h26.582L281.812,63.488s-1.6-2.665-3.731-3.2c0,0-2.665-1.6-6.4,3.2Z" transform="translate(-147.012 -60.034)"/>
  <path id="패스_201" data-name="패스 201" d="M298.335,60.29V83.209h20.129l4.389-5.863H305.264V60.29Z" transform="translate(-147.035 -60.034)"/>
  <path id="패스_202" data-name="패스 202" d="M325.517,60.29V83.209h20.129l4.389-5.863H332.446V60.29Z" transform="translate(-147.035 -60.034)"/>
</svg>
