<svg id="ic_quick_notify" xmlns="http://www.w3.org/2000/svg" width="36" height="36" viewBox="0 0 36 36">
  <rect id="area" width="36" height="36" fill="none"/>
  <g id="icon" transform="translate(7 5)">
    <path id="빼기_1" data-name="빼기 1" d="M-1144-157a4.005,4.005,0,0,1-4-4,4.018,4.018,0,0,1,.126-1h7.748a4.007,4.007,0,0,1,.126,1A4,4,0,0,1-1144-157Z" transform="translate(1155 182)" fill="none" stroke="#fff" stroke-linejoin="bevel" stroke-width="2"/>
    <path id="_00" data-name="00" d="M409.577,313.785v-.522c0-3.157-2.825-5.909-6.488-6-3.79-.1-6.9,2.52-6.9,5.763v.763a15.512,15.512,0,0,1-3.306,9.471h0l20,0h0A15.519,15.519,0,0,1,409.577,313.785Z" transform="translate(-391.887 -303.258)" fill="none" stroke="#fff" stroke-linecap="round" stroke-linejoin="round" stroke-width="2"/>
    <line id="_00-2" data-name="00" x1="0.001" y1="3" transform="translate(11 1)" fill="none" stroke="#fff" stroke-linecap="round" stroke-linejoin="bevel" stroke-width="2"/>
  </g>
</svg>
