<svg id="ic_quick_bookmark" xmlns="http://www.w3.org/2000/svg" width="36" height="36" viewBox="0 0 36 36">
  <rect id="area" width="36" height="36" fill="none"/>
  <path id="star" d="M169.065,408.01l2.9,5.879,6.492.943a.914.914,0,0,1,.508,1.56l-4.7,4.576,1.11,6.461a.915.915,0,0,1-1.328.964l-5.807-3.051-5.806,3.051a.915.915,0,0,1-1.328-.964l1.109-6.461-4.7-4.576a.914.914,0,0,1,.507-1.56l6.492-.943,2.9-5.879A.915.915,0,0,1,169.065,408.01Z" transform="translate(-150.245 -399.5)" fill="none" stroke="#fff" stroke-linecap="round" stroke-linejoin="round" stroke-width="2"/>
</svg>
