<svg id="ic_star_default" xmlns="http://www.w3.org/2000/svg" width="24" height="24" viewBox="0 0 24 24">
  <rect id="area" width="24" height="24" fill="none"/>
  <path id="star" d="M167.99,407.961l2.639,5.319,5.9.853a.826.826,0,0,1,.462,1.411l-4.271,4.14,1.009,5.846a.831.831,0,0,1-1.207.872l-5.279-2.76-5.278,2.76a.831.831,0,0,1-1.207-.872l1.008-5.846-4.27-4.14a.826.826,0,0,1,.461-1.411l5.9-.853,2.64-5.319A.833.833,0,0,1,167.99,407.961Z" transform="translate(-155.245 -404.5)" fill="#d7d7d7"/>
</svg>
