<svg id="ic_mo_quick_speech" xmlns="http://www.w3.org/2000/svg" width="24" height="24" viewBox="0 0 24 24">
  <rect id="area" width="24" height="24" fill="none"/>
  <g id="icon" transform="translate(2 4)">
    <path id="_00" data-name="00" d="M225.5,413h-18a1,1,0,0,0-1,1v12a1,1,0,0,0,1,1h3l2.5,3,2.5-3h10a1,1,0,0,0,1-1V414A1,1,0,0,0,225.5,413Z" transform="translate(-206.5 -413)" fill="none" stroke="#fff" stroke-linecap="round" stroke-linejoin="round" stroke-width="2"/>
    <circle id="_00-2" data-name="00" cx="1.5" cy="1.5" r="1.5" transform="translate(4 6)" fill="#fff"/>
    <circle id="_00-3" data-name="00" cx="1.5" cy="1.5" r="1.5" transform="translate(9 6)" fill="#fff"/>
    <circle id="_00-4" data-name="00" cx="1.5" cy="1.5" r="1.5" transform="translate(14 6)" fill="#fff"/>
  </g>
</svg>
