<svg xmlns="http://www.w3.org/2000/svg" width="98" height="90" viewBox="0 0 98 90">
  <path id="고객센터이미지" d="M662.894,899.881h-1.159c-2.268-17.508-15.968-29.272-32.629-29.272-18.24,0-32.995,15.011-32.995,33.676v27.429h-2.892a7.609,7.609,0,0,1-4.265-1.517,8.884,8.884,0,0,1-3.732-7.675v-7.768a8.522,8.522,0,0,1,5.679-8.4l-.095-.083a2.646,2.646,0,0,1,.274-.1L589.55,900a14.666,14.666,0,0,0-4.3,1.9l.232.194A15.154,15.154,0,0,0,579,914.755v7.768a15.241,15.241,0,0,0,6.644,13.066,13.7,13.7,0,0,0,7.576,2.493h9.114v-33.8c0-15.154,11.634-27.483,26.444-27.483s26.444,12.329,26.444,27.483v31.682l-.025-.083a13.553,13.553,0,0,1-11.042,11.043,9.515,9.515,0,0,0-8.725-5.887,9.787,9.787,0,1,0,9.271,12.283,20.29,20.29,0,0,0,14.771-10.249,23.664,23.664,0,0,0,2-4.993h1.417a13.516,13.516,0,0,0,7.518-2.493c4.366-2.806,6.588-7.8,6.588-13.066v-7.768C677,906.363,671.1,899.881,662.894,899.881Zm-27.423,54.361a3.419,3.419,0,1,1,3.341-3.417A3.383,3.383,0,0,1,635.471,954.243Zm35.307-31.72c0,3.064-1.132,6.04-3.676,7.675a7.434,7.434,0,0,1-4.208,1.517h-1.45V906.248h1.45c4.772,0,7.883,3.624,7.883,8.507Z" transform="translate(-579 -870.609)" fill="#346dd0"/>
</svg>
