<svg xmlns="http://www.w3.org/2000/svg" width="40.623" height="33.628" viewBox="0 0 40.623 33.628">
  <g id="img_ic_q_a" data-name="img_ic_q&amp;a" transform="translate(0.25 0.25)">
    <g id="그룹_127" data-name="그룹 127">
      <g id="그룹_121" data-name="그룹 121" transform="translate(11.122)">
        <path id="패스_555" data-name="패스 555" d="M104.182,371.439h-3.19v-1.446h1.762v-7.064l4.07-3.681-4.07-3.681V348.5H81.518v2.023H80.09v-3.468h24.092v7.863l4.786,4.328-4.786,4.328Z" transform="translate(-80.09 -347.057)" stroke="#000" stroke-miterlimit="10" stroke-width="0.5"/>
      </g>
      <g id="그룹_122" data-name="그룹 122" transform="translate(0 6.261)">
        <path id="패스_556" data-name="패스 556" d="M81.735,380.708l-4.276-4.844H71.7a4.061,4.061,0,0,1-4.032-4.081V358.051a4.062,4.062,0,0,1,4.032-4.082H91.773a4.062,4.062,0,0,1,4.033,4.082v13.731a4.061,4.061,0,0,1-4.033,4.081H86.012ZM71.7,355.415a2.624,2.624,0,0,0-2.6,2.636v13.731a2.624,2.624,0,0,0,2.6,2.636h6.4l3.636,4.119,3.637-4.119h6.4a2.623,2.623,0,0,0,2.6-2.636V358.051a2.623,2.623,0,0,0-2.6-2.636Z" transform="translate(-67.665 -353.969)" stroke="#000" stroke-miterlimit="10" stroke-width="0.5"/>
      </g>
      <g id="그룹_126" data-name="그룹 126" transform="translate(8.248 12.625)">
        <g id="그룹_123" data-name="그룹 123" transform="translate(0 3.797)">
          <rect id="사각형_512" data-name="사각형 512" width="11.747" height="1.446" stroke="#000" stroke-miterlimit="10" stroke-width="0.5"/>
        </g>
        <g id="그룹_124" data-name="그룹 124">
          <rect id="사각형_513" data-name="사각형 513" width="11.747" height="1.446" stroke="#000" stroke-miterlimit="10" stroke-width="0.5"/>
        </g>
        <g id="그룹_125" data-name="그룹 125" transform="translate(0 7.593)">
          <rect id="사각형_514" data-name="사각형 514" width="6.79" height="1.446" stroke="#000" stroke-miterlimit="10" stroke-width="0.5"/>
        </g>
      </g>
    </g>
  </g>
</svg>
