<svg id="ic_mo_quick_notify" xmlns="http://www.w3.org/2000/svg" width="24" height="24" viewBox="0 0 24 24">
  <rect id="area" width="24" height="24" fill="none"/>
  <g id="icon" transform="translate(2)">
    <path id="빼기_1" data-name="빼기 1" d="M-1145-160a3,3,0,0,1-3-3,3,3,0,0,1,.171-1h5.659a2.993,2.993,0,0,1,.171,1A3,3,0,0,1-1145-160Z" transform="translate(1155 182)" fill="none" stroke="#fff" stroke-linejoin="bevel" stroke-width="2"/>
    <path id="_00" data-name="00" d="M407.908,312.969v-.456c0-2.762-2.542-5.17-5.839-5.253-3.411-.085-6.208,2.205-6.207,5.043v.668a13.335,13.335,0,0,1-2.975,8.287h0l18,0h0A13.342,13.342,0,0,1,407.908,312.969Z" transform="translate(-391.887 -303.258)" fill="none" stroke="#fff" stroke-linecap="round" stroke-linejoin="round" stroke-width="2"/>
    <line id="_00-2" data-name="00" x1="0.001" y1="2" transform="translate(10 2)" fill="none" stroke="#fff" stroke-linecap="round" stroke-linejoin="bevel" stroke-width="2"/>
  </g>
</svg>
