<svg id="ic_quick" xmlns="http://www.w3.org/2000/svg" width="18" height="18" viewBox="0 0 18 18">
  <rect id="area" width="18" height="18" fill="none"/>
  <path id="quick" d="M426.942,499.976c0-.256-.31-.373-.635-.21-.883.283-9.249,8.86-9.249,8.86a.452.452,0,0,0,.056.425.479.479,0,0,0,.389.2h3.325l-3.026,5.83a.458.458,0,0,0,.216.553.486.486,0,0,0,.234.06.478.478,0,0,0,.363-.165l9.3-9.673a.453.453,0,0,0,.067-.493.476.476,0,0,0-.431-.267h-3.109l2.408-4.845A.451.451,0,0,0,426.942,499.976Z" transform="translate(-414.028 -498.691)" fill="#fff970"/>
</svg>
